<?xml version="1.0" encoding="iso-8859-1"?>
<!-- Generator: Adobe Illustrator 18.0.0, SVG Export Plug-In . SVG Version: 6.00 Build 0)  -->
<!DOCTYPE svg PUBLIC "-//W3C//DTD SVG 1.1//EN" "http://www.w3.org/Graphics/SVG/1.1/DTD/svg11.dtd">
<svg version="1.1" id="Capa_1" xmlns="http://www.w3.org/2000/svg" xmlns:xlink="http://www.w3.org/1999/xlink" x="0px" y="0px"
	 viewBox="0 0 462.002 462.002" style="enable-background:new 0 0 462.002 462.002;" xml:space="preserve">
<path id="XMLID_1274_" d="M306.247,256.18c0.186-17.55-5.625-33.532-15.941-43.85c-13.32-13.319-33.312-16.808-52.552-11.131
	c-3.66-15.992-7.453-32.146-11.225-48.207c-0.467-1.989-0.934-3.975-1.399-5.959c3.364-4.319,6.635-8.419,9.793-12.378
	c23.059-28.908,39.719-49.794,35.846-86.587c-3.352-31.842-14.898-42.826-23.994-46.434c-8.829-3.503-18.768-1.316-27.265,5.997
	c-18.997,16.352-33.279,60.487-19.747,118.751c1.231,5.302,2.479,10.64,3.734,16.001c-7.877,10.441-16.348,22.418-24.895,36.392
	c-26.228,42.879-25.18,74.466-19.682,93.414c5.581,19.236,18.333,34.966,34.984,43.155c16.373,8.052,32.637,11.284,47.873,9.822
	c1.919,13.939,3.179,26.77,3.594,38.163c-4.861-2.167-10.385-3.4-16.244-3.4c-19.353,0-35.097,13.381-35.097,29.83
	c0,13.819,11.116,25.47,26.146,28.843c0.499,8.302-0.37,20.201-6.966,25.743c-4.229,3.552-4.777,9.86-1.226,14.089
	c1.979,2.354,4.811,3.568,7.662,3.568c2.271,0,4.553-0.769,6.427-2.343c13.362-11.224,14.787-29.842,14.126-41.6
	c13.805-3.912,22.194-14.535,23.639-23.33c3.052-18.544,1.601-44.255-2.596-74.222c9.544-3.764,18.438-9.641,26.389-17.591
	C299.27,291.278,306.055,274.244,306.247,256.18z M232.557,22.79c1.305-1.123,3.583-2.785,5.638-2.785
	c0.414,0,0.819,0.067,1.205,0.221c3.228,1.28,9.276,9.026,11.478,29.937c3.014,28.628-9.999,44.954-31.565,71.99
	c-0.022-0.098-0.045-0.196-0.068-0.293C206.89,68.668,220.853,32.863,232.557,22.79z M202.731,297.398
	c-11.446-5.629-20.644-17.136-24.603-30.781c-6.274-21.625-0.211-48.391,17.535-77.405c4.698-7.681,9.331-14.679,13.859-21.146
	c3.271,13.946,6.534,27.923,9.684,41.736c-4.331,2.817-8.477,6.157-12.329,10.009c-3.905,3.905-3.905,10.237,0,14.142
	c3.906,3.906,10.236,3.906,14.143,0c0.974-0.974,1.97-1.902,2.987-2.787c5.778,26.146,10.942,51.35,14.764,74.324
	C227.529,306.332,215.436,303.647,202.731,297.398z M229.158,399.588c-0.015,0-0.029,0-0.044,0
	c-8.889-0.005-15.084-5.182-15.084-9.829c0-4.649,6.2-9.83,15.097-9.83s15.097,5.18,15.097,9.83
	C244.224,394.403,238.038,399.576,229.158,399.588z M273.49,288.774c-4.804,4.804-9.949,8.584-15.401,11.339
	c-4.152-24.74-9.739-51.672-15.931-79.438c12.76-4.226,25.698-2.509,34.005,5.798C289.304,239.615,290.681,271.583,273.49,288.774z"
	/>
<g>
</g>
<g>
</g>
<g>
</g>
<g>
</g>
<g>
</g>
<g>
</g>
<g>
</g>
<g>
</g>
<g>
</g>
<g>
</g>
<g>
</g>
<g>
</g>
<g>
</g>
<g>
</g>
<g>
</g>
</svg>
